<?xml version="1.0" encoding="utf-8"?>
<!-- Generator: Adobe Illustrator 24.2.3, SVG Export Plug-In . SVG Version: 6.00 Build 0)  -->
<svg version="1.1" id="Capa_1" xmlns="http://www.w3.org/2000/svg" xmlns:xlink="http://www.w3.org/1999/xlink" x="0px" y="0px"
	 viewBox="0 0 372 514" style="enable-background:new 0 0 372 514;" xml:space="preserve">
<style type="text/css">
	.st0{fill:#FFFFFF;}
</style>
<g>
	<g>
		<g>
			<path class="st0" d="M60,126.01h-5.3v12.6h-8.55v-35.1H60c8.6,0,12.9,4.85,12.9,11.3C72.9,120.61,68.95,126.01,60,126.01z
				 M59.35,119.21c3.4,0,4.85-1.7,4.85-4.4s-1.45-4.4-4.85-4.4H54.7v8.8H59.35z"/>
			<path class="st0" d="M93.95,138.96c-9.95,0-18.05-7.45-18.05-18s8.1-17.95,18.05-17.95c10,0,17.95,7.4,17.95,17.95
				S103.9,138.96,93.95,138.96z M93.95,131.16c5.6,0,9.25-4.05,9.25-10.2c0-6.25-3.65-10.2-9.25-10.2c-5.7,0-9.3,3.95-9.3,10.2
				C84.65,127.11,88.25,131.16,93.95,131.16z"/>
			<path class="st0" d="M129.35,138.96c-7.55,0-13.45-3.75-13.7-10.85h9.1c0.25,2.7,1.95,4,4.35,4c2.5,0,4.1-1.25,4.1-3.3
				c0-6.5-17.55-3-17.45-15.45c0-6.65,5.45-10.35,12.8-10.35c7.65,0,12.8,3.8,13.15,10.5h-9.25c-0.15-2.25-1.75-3.6-4.05-3.65
				c-2.05-0.05-3.6,1-3.6,3.2c0,6.1,17.35,3.35,17.35,15.1C142.15,134.07,137.55,138.96,129.35,138.96z"/>
			<path class="st0" d="M180.15,114.61h-9.45c-1.3-2.35-3.7-3.6-6.9-3.6c-5.5,0-9.15,3.9-9.15,10c0,6.5,3.7,10.3,9.85,10.3
				c4.25,0,7.2-2.25,8.5-6.2h-10.85v-6.3h18.6v7.95c-1.8,6.05-7.65,12.1-16.9,12.1c-10.5,0-17.9-7.35-17.9-17.85
				c0-10.5,7.35-17.9,17.85-17.9C172.2,103.11,178.3,107.41,180.15,114.61z"/>
			<path class="st0" d="M199.85,103.51c8.6,0,12.9,4.95,12.9,11.05c0,4.4-2.4,8.55-7.8,10.15l8.1,13.9h-9.65l-7.3-13.25h-2.05v13.25
				h-8.55v-35.1H199.85z M199.35,110.61h-5.3v8.7h5.3c3.2,0,4.7-1.65,4.7-4.4C204.05,112.31,202.55,110.61,199.35,110.61z"/>
			<path class="st0" d="M239.95,132.41h-13.1l-2.1,6.2h-8.95l12.7-35.1h9.9l12.7,35.1h-9.05L239.95,132.41z M233.4,112.96
				l-4.3,12.85h8.65L233.4,112.96z"/>
			<path class="st0" d="M286.5,121.06c0,10.4-7.2,17.55-18.4,17.55h-13.15v-35.1h13.15C279.3,103.51,286.5,110.61,286.5,121.06z
				 M267.55,131.21c6.45,0,10.25-3.7,10.25-10.15c0-6.45-3.8-10.25-10.25-10.25h-4.05v20.4H267.55z"/>
			<path class="st0" d="M307.9,138.96c-9.95,0-18.05-7.45-18.05-18s8.1-17.95,18.05-17.95c10,0,17.95,7.4,17.95,17.95
				S317.85,138.96,307.9,138.96z M307.9,131.16c5.6,0,9.25-4.05,9.25-10.2c0-6.25-3.65-10.2-9.25-10.2c-5.7,0-9.3,3.95-9.3,10.2
				C298.6,127.11,302.2,131.16,307.9,131.16z"/>
		</g>
	</g>
	<g>
		<path class="st0" d="M118.21,396.93h-3.84c-1.04-1.96-2.88-2.94-5.21-2.94c-3.86,0-6.66,2.74-6.66,7.03c0,4.28,2.8,7.06,6.66,7.06
			c3.53,0,5.74-2.13,6.22-5.4h-7.31v-2.55h10.72v2.49c-0.59,4.51-4.4,8.34-9.63,8.34c-5.49,0-9.94-4.09-9.94-9.94
			c0-5.82,4.45-9.94,9.94-9.94C113.23,391.08,116.73,393.12,118.21,396.93z"/>
		<path class="st0" d="M128.66,391.33c4.62,0,6.89,2.66,6.89,5.82c0,2.3-1.23,4.76-4.51,5.57l4.82,8.06h-3.81l-4.48-7.78h-2.44v7.78
			h-3.19v-19.46H128.66z M128.66,393.94h-3.53v6.52h3.53c2.49,0,3.61-1.37,3.61-3.3C132.27,395.2,131.15,393.94,128.66,393.94z"/>
		<path class="st0" d="M151.36,406.82h-8.15l-1.4,3.98h-3.33l6.97-19.49h3.7l6.97,19.49h-3.36L151.36,406.82z M147.3,395.17
			l-3.19,9.04h6.36L147.3,395.17z"/>
		<path class="st0" d="M175.84,401.13c0,5.99-4.09,9.66-10.33,9.66h-6.36v-19.46h6.36C171.75,391.33,175.84,395.11,175.84,401.13z
			 M165.5,408.19c4.59,0,7.06-2.63,7.06-7.06c0-4.45-2.46-7.2-7.06-7.2h-3.16v14.25H165.5z"/>
		<path class="st0" d="M178.97,391.33h3.19v12.4c0,3.02,1.71,4.45,4.4,4.45c2.72,0,4.42-1.43,4.42-4.45v-12.4h3.19v12.35
			c0,4.96-3.58,7.31-7.64,7.31c-4.09,0-7.56-2.35-7.56-7.31V391.33z"/>
		<path class="st0" d="M210.05,406.82h-8.15l-1.4,3.98h-3.33l6.97-19.49h3.7l6.97,19.49h-3.36L210.05,406.82z M205.99,395.17
			l-3.19,9.04h6.36L205.99,395.17z"/>
		<path class="st0" d="M234.52,401.13c0,5.99-4.09,9.66-10.33,9.66h-6.36v-19.46h6.36C230.44,391.33,234.52,395.11,234.52,401.13z
			 M224.19,408.19c4.59,0,7.06-2.63,7.06-7.06c0-4.45-2.46-7.2-7.06-7.2h-3.16v14.25H224.19z"/>
		<path class="st0" d="M246.56,410.99c-5.49,0-9.94-4.12-9.94-9.97c0-5.82,4.45-9.94,9.94-9.94c5.54,0,9.94,4.12,9.94,9.94
			C256.5,406.87,252.11,410.99,246.56,410.99z M246.56,408.21c3.86,0,6.66-2.8,6.66-7.2c0-4.4-2.8-7.14-6.66-7.14
			c-3.86,0-6.66,2.74-6.66,7.14C239.9,405.42,242.7,408.21,246.56,408.21z"/>
		<path class="st0" d="M266.05,410.99c-3.89,0-6.89-2.13-6.89-5.57h3.42c0.14,1.6,1.26,2.88,3.47,2.88c2.24,0,3.5-1.2,3.5-2.86
			c0-4.7-10.33-1.65-10.33-8.82c0-3.42,2.72-5.54,6.69-5.54c3.72,0,6.36,1.96,6.64,5.29h-3.53c-0.11-1.32-1.26-2.52-3.28-2.58
			c-1.85-0.06-3.28,0.84-3.28,2.72c0,4.4,10.3,1.65,10.3,8.76C272.77,408.19,270.39,410.99,266.05,410.99z"/>
	</g>
	<g>
		<g>
			<path class="st0" d="M74.61,351.43v-9.83l46.83-61.07h12.68v60.68h13.46v10.22h-13.46v20.96h-11.9v-20.96H74.61z M123,294.9
				l-35.97,46.32H123V294.9z"/>
			<path class="st0" d="M191.43,334.03c8.8-9.7,13.2-18.74,13.2-27.1c0-5.17-1.32-9.33-3.95-12.48c-2.63-3.15-6.88-4.72-12.74-4.72
				c-6.04,0-10.61,1.92-13.71,5.76c-3.11,3.84-4.83,9.12-5.17,15.85h-11.64c0.6-10.18,3.75-18,9.45-23.48
				c5.69-5.48,13.02-8.21,21.99-8.21c8.54,0,15.31,2.29,20.31,6.86c5,4.57,7.5,11.04,7.5,19.41c0,6.9-2.22,13.91-6.66,21.02
				c-4.44,7.12-10.01,13.71-16.69,19.79c-6.69,6.08-13.56,11.24-20.64,15.46h46.32v9.7h-62.75v-8.54
				C170.91,353.5,182.64,343.74,191.43,334.03z"/>
			<path class="st0" d="M277.53,292.89c-2.98-2.98-7.1-4.46-12.36-4.46c-7.33,0-12.87,2.85-16.63,8.54
				c-3.75,5.69-5.63,14.71-5.63,27.04l0.13,4.79c1.29-5.17,4.27-9.29,8.93-12.36c4.66-3.06,10.13-4.59,16.43-4.59
				c9.06,0,16.15,2.72,21.28,8.15c5.13,5.43,7.7,13.02,7.7,22.77c0,5.69-1.12,10.85-3.36,15.46c-2.24,4.62-5.67,8.28-10.29,11
				c-4.62,2.72-10.33,4.08-17.14,4.08c-13.02,0-21.97-4.09-26.84-12.29c-4.87-8.19-7.31-19.32-7.31-33.38
				c0-16.21,2.61-28.4,7.83-36.55c5.22-8.15,13.73-12.23,25.55-12.23c8.71,0,15.42,2.46,20.12,7.37c4.7,4.92,7.48,11.34,8.34,19.28
				h-11.26C282.34,300.07,280.51,295.87,277.53,292.89z M249.84,356.67c3.67,4.27,9.16,6.4,16.5,6.4c6.04,0,10.87-1.79,14.49-5.37
				c3.62-3.58,5.43-8.6,5.43-15.07c0-6.99-1.81-12.31-5.43-15.98c-3.62-3.67-8.63-5.5-15.01-5.5c-3.62,0-7.07,0.73-10.35,2.2
				c-3.28,1.47-5.95,3.69-8.02,6.66c-2.07,2.98-3.1,6.58-3.1,10.8C244.35,347.12,246.18,352.4,249.84,356.67z"/>
		</g>
		<path class="st0" d="M225.44,263.73c0.56,0.1,1.12,0.19,1.69,0.29c0-6.67,0.4-13.38-0.11-20.02c-0.51-6.59,2.26-9.63,8.41-11.09
			c7.21-1.72,14.99-1.59,22.98-6.54c-9.54-2.28-17.69-4.33-25.89-6.16c-24.19-5.38-48.09-12.2-73.32-4.04
			c-14.02,4.53-28.85,6.53-43.32,9.67c-0.01,0.74-0.01,1.48-0.02,2.22c5.02,1.17,10.05,2.32,15.07,3.5
			c25.86,6.06,22.05,1.97,22.27,24.59c0.01,1.17,0.09,2.35,0.23,3.51c0.29,2.32,1.63,4.29,3.95,3.82
			c13.35-2.68,26.47,5.38,39.97,0.44c6.61-2.42,15.49,2.43,20.44-1.91c5.22-4.57,1.1-13.4,2.27-20.25c0.33-1.92,0.19-4.6,3.18-4.22
			c2.24,0.28,2.14,2.53,2.16,4.24C225.48,249.1,225.44,256.42,225.44,263.73z"/>
	</g>
</g>
</svg>
