<?xml version="1.0" encoding="utf-8"?>
<!-- Generator: Adobe Illustrator 24.2.3, SVG Export Plug-In . SVG Version: 6.00 Build 0)  -->
<svg version="1.1" id="Capa_1" xmlns="http://www.w3.org/2000/svg" xmlns:xlink="http://www.w3.org/1999/xlink" x="0px" y="0px"
	 viewBox="0 0 372 514" style="enable-background:new 0 0 372 514;" xml:space="preserve">
<style type="text/css">
	.st0{fill:#FFFFFF;}
</style>
<g>
	<g>
		<path class="st0" d="M130.25,114.61h-9.45c-1.3-2.35-3.7-3.6-6.9-3.6c-5.5,0-9.15,3.9-9.15,10c0,6.5,3.7,10.3,9.85,10.3
			c4.25,0,7.2-2.25,8.5-6.2h-10.85v-6.3h18.6v7.95c-1.8,6.05-7.65,12.1-16.9,12.1c-10.5,0-17.9-7.35-17.9-17.85
			c0-10.5,7.35-17.9,17.85-17.9C122.3,103.11,128.4,107.41,130.25,114.61z"/>
		<path class="st0" d="M149.95,103.51c8.6,0,12.9,4.95,12.9,11.05c0,4.4-2.4,8.55-7.8,10.15l8.1,13.9h-9.65l-7.3-13.25h-2.05v13.25
			h-8.55v-35.1H149.95z M149.45,110.61h-5.3v8.7h5.3c3.2,0,4.7-1.65,4.7-4.4C154.15,112.31,152.65,110.61,149.45,110.61z"/>
		<path class="st0" d="M190.05,132.42h-13.1l-2.1,6.2h-8.95l12.7-35.1h9.9l12.7,35.1h-9.05L190.05,132.42z M183.5,112.96l-4.3,12.85
			h8.65L183.5,112.96z"/>
		<path class="st0" d="M236.6,121.07c0,10.4-7.2,17.55-18.4,17.55h-13.15v-35.1h13.15C229.4,103.51,236.6,110.61,236.6,121.07z
			 M217.65,131.22c6.45,0,10.25-3.7,10.25-10.15c0-6.45-3.8-10.25-10.25-10.25h-4.05v20.4H217.65z"/>
		<path class="st0" d="M258,138.97c-9.95,0-18.05-7.45-18.05-18s8.1-17.95,18.05-17.95c10,0,17.95,7.4,17.95,17.95
			S267.95,138.97,258,138.97z M258,131.17c5.6,0,9.25-4.05,9.25-10.2c0-6.25-3.65-10.2-9.25-10.2c-5.7,0-9.3,3.95-9.3,10.2
			C248.7,127.11,252.3,131.17,258,131.17z"/>
	</g>
	<g>
		<path class="st0" d="M127.13,347.29c1.68,9.7,7.89,15.4,18.76,15.4c13.71,0,21.09-9.32,20.7-36.74
			c-3.75,7.89-13.07,12.42-23.16,12.42c-17.21,0-30.02-10.74-30.02-30.53c0-17.85,10.61-30.79,30.79-30.79
			c25.36,0,32.73,17.85,32.73,46.83c0,31.18-7.12,48.65-31.7,48.65c-18.63,0-27.69-11.51-28.98-25.23H127.13z M165.17,308.48
			c0-12.68-7.25-21.61-20.7-21.61c-12.16,0-19.79,8.28-19.79,20.7c0,12.03,6.73,20.83,20.7,20.83
			C156.63,328.4,165.17,321.03,165.17,308.48z"/>
		<path class="st0" d="M226.11,277.43c25.75,0,32.47,20.44,32.47,47.22c0,27.17-6.73,47.74-32.47,47.74
			c-25.88,0-32.6-20.57-32.6-47.74C193.5,297.87,200.23,277.43,226.11,277.43z M226.11,288.17c-18.5,0-20.96,17.08-20.96,36.48
			c0,20.18,2.46,37,20.96,37c18.37,0,20.83-16.82,20.83-37C246.94,305.24,244.48,288.17,226.11,288.17z"/>
	</g>
	<g>
		<path class="st0" d="M118.21,396.93h-3.84c-1.04-1.96-2.88-2.94-5.21-2.94c-3.86,0-6.66,2.74-6.66,7.03c0,4.28,2.8,7.06,6.66,7.06
			c3.53,0,5.74-2.13,6.22-5.4h-7.31v-2.55h10.72v2.49c-0.59,4.51-4.4,8.34-9.63,8.34c-5.49,0-9.94-4.09-9.94-9.94
			c0-5.82,4.45-9.94,9.94-9.94C113.23,391.08,116.73,393.12,118.21,396.93z"/>
		<path class="st0" d="M128.66,391.33c4.62,0,6.89,2.66,6.89,5.82c0,2.3-1.23,4.76-4.51,5.57l4.82,8.06h-3.81l-4.48-7.78h-2.44v7.78
			h-3.19v-19.46H128.66z M128.66,393.93h-3.53v6.52h3.53c2.49,0,3.61-1.37,3.61-3.3C132.27,395.19,131.15,393.93,128.66,393.93z"/>
		<path class="st0" d="M151.36,406.81h-8.15l-1.4,3.98h-3.33l6.97-19.49h3.7l6.97,19.49h-3.36L151.36,406.81z M147.3,395.17
			l-3.19,9.04h6.36L147.3,395.17z"/>
		<path class="st0" d="M175.84,401.13c0,5.99-4.09,9.66-10.33,9.66h-6.36v-19.46h6.36C171.75,391.33,175.84,395.11,175.84,401.13z
			 M165.5,408.19c4.59,0,7.06-2.63,7.06-7.06c0-4.45-2.46-7.2-7.06-7.2h-3.16v14.25H165.5z"/>
		<path class="st0" d="M178.97,391.33h3.19v12.4c0,3.02,1.71,4.45,4.4,4.45c2.72,0,4.42-1.43,4.42-4.45v-12.4h3.19v12.35
			c0,4.96-3.58,7.31-7.64,7.31c-4.09,0-7.56-2.35-7.56-7.31V391.33z"/>
		<path class="st0" d="M210.05,406.81h-8.15l-1.4,3.98h-3.33l6.97-19.49h3.7l6.97,19.49h-3.36L210.05,406.81z M205.99,395.17
			l-3.19,9.04h6.36L205.99,395.17z"/>
		<path class="st0" d="M234.52,401.13c0,5.99-4.09,9.66-10.33,9.66h-6.36v-19.46h6.36C230.44,391.33,234.52,395.11,234.52,401.13z
			 M224.19,408.19c4.59,0,7.06-2.63,7.06-7.06c0-4.45-2.46-7.2-7.06-7.2h-3.16v14.25H224.19z"/>
		<path class="st0" d="M246.56,410.99c-5.49,0-9.94-4.12-9.94-9.97c0-5.82,4.45-9.94,9.94-9.94c5.54,0,9.94,4.12,9.94,9.94
			C256.5,406.87,252.11,410.99,246.56,410.99z M246.56,408.21c3.86,0,6.66-2.8,6.66-7.2c0-4.4-2.8-7.14-6.66-7.14
			c-3.86,0-6.66,2.74-6.66,7.14C239.9,405.41,242.7,408.21,246.56,408.21z"/>
		<path class="st0" d="M266.05,410.99c-3.89,0-6.89-2.13-6.89-5.57h3.42c0.14,1.6,1.26,2.88,3.47,2.88c2.24,0,3.5-1.2,3.5-2.86
			c0-4.7-10.33-1.65-10.33-8.82c0-3.42,2.72-5.54,6.69-5.54c3.72,0,6.36,1.96,6.64,5.29h-3.53c-0.11-1.32-1.26-2.52-3.28-2.58
			c-1.85-0.06-3.28,0.84-3.28,2.72c0,4.4,10.3,1.65,10.3,8.76C272.77,408.19,270.39,410.99,266.05,410.99z"/>
	</g>
	<path class="st0" d="M224.31,263.73c0.56,0.1,1.12,0.19,1.69,0.29c0-6.67,0.4-13.38-0.11-20.02c-0.51-6.59,2.26-9.63,8.41-11.09
		c7.21-1.72,14.99-1.59,22.98-6.54c-9.54-2.28-17.69-4.33-25.89-6.16c-24.19-5.38-48.09-12.2-73.32-4.04
		c-14.02,4.53-28.85,6.53-43.32,9.67c-0.01,0.74-0.01,1.48-0.02,2.22c5.02,1.17,10.05,2.32,15.07,3.5
		c25.86,6.06,22.05,1.97,22.27,24.59c0.01,1.17,0.09,2.35,0.23,3.51c0.29,2.32,1.63,4.29,3.95,3.82
		c13.35-2.68,26.47,5.38,39.97,0.44c6.61-2.42,15.49,2.43,20.44-1.91c5.22-4.57,1.1-13.4,2.27-20.25c0.33-1.92,0.19-4.6,3.18-4.22
		c2.24,0.28,2.14,2.53,2.16,4.24C224.35,249.1,224.31,256.42,224.31,263.73z"/>
</g>
</svg>
