<svg id="Capa_1" data-name="Capa 1" xmlns="http://www.w3.org/2000/svg" viewBox="0 0 978.59 337.73"><defs><style>.cls-1{fill:#66b0dd;}.cls-2{fill:#345ba0;}.cls-3{fill:#687f94;}.cls-4{fill:#355ba0;}</style></defs><title>ECOTEC</title><path class="cls-1" d="M231.5,224.19c0,23.42-7,40.85-21.5,53.29s-32.55,18.88-53.52,18.88c-21.26,0-38.46-6.12-52.61-18.7-13.94-12.35-20.71-29.83-20.71-53.47v-114h47.89c4.3-3.77,9.18-8.12,14.19-12.61H70.54V224.19c0,27.07,8.4,48.24,25,62.91,16.31,14.51,36.83,21.88,61,21.88s44.85-7.38,61.75-21.94c17.17-14.76,25.88-35.91,25.88-62.85V151.25c-3.58,3.41-7.85,7.59-12.61,12.33Z"/><path class="cls-2" d="M381.45,153.08v19.61h-47.6v33.25H376v19.61H333.85v35.06h47.6v19.62H308.24V153.08Z"/><path class="cls-2" d="M414.32,267.52q-13.8-14.17-13.8-37.61t13.8-37.6q13.81-14.16,35.79-14.17,18.34,0,30.7,8.9t16.53,25.25H469.73q-4.91-12.53-19.62-12.53-11.08,0-17.35,8.08t-6.27,22.07q0,14,6.27,22.08t17.35,8.08q14.53,0,19.62-12.72h27.61a45.27,45.27,0,0,1-16.8,25.07q-12.45,9.27-30.43,9.27Q428.14,281.69,414.32,267.52Z"/><path class="cls-2" d="M524.4,267.34Q509.7,253,509.69,229.73t14.9-37.42q14.89-14.16,37-14.17t37,14.17q14.9,14.17,14.9,37.42t-15,37.61q-15,14.34-37.15,14.35T524.4,267.34Zm36.88-7.27a24.87,24.87,0,0,0,18.44-7.9q7.72-7.9,7.72-22.35t-7.63-22.25a24.86,24.86,0,0,0-18.44-7.81,24.26,24.26,0,0,0-18.25,7.81q-7.46,7.81-7.45,22.34t7.45,22.35A24.11,24.11,0,0,0,561.28,260.07Z"/><path class="cls-2" d="M672.81,258.8H685v21.43H668.82q-15.45,0-23.8-7.08t-8.36-23.43V200.49H626V179.6h10.71V154.71h25.62V179.6H684.8v20.89H662.28v49.23c0,3.27.78,5.6,2.36,7S668.94,258.8,672.81,258.8Z"/><path class="cls-2" d="M747.48,281.69q-22,0-35.79-14.26t-13.81-37.7q0-23.43,13.9-37.51t36-14.08q22.07,0,36.24,13.72t14.17,36.6a62.56,62.56,0,0,1-.73,9.81H724q.91,9.81,7.27,15.8t16.17,6q13.24,0,19.61-10.9H794.7a44.08,44.08,0,0,1-16.89,23.43Q765.29,281.69,747.48,281.69Zm16.8-75.94a24.05,24.05,0,0,0-16.44-6,22.74,22.74,0,0,0-16.08,6q-6.45,6-7.72,16h47.59Q771.09,211.75,764.28,205.75Z"/><path class="cls-2" d="M825,267.52q-13.81-14.17-13.81-37.61T825,192.31q13.8-14.16,35.78-14.17,18.36,0,30.7,8.9t16.53,25.25H880.44q-4.91-12.53-19.62-12.53-11.07,0-17.35,8.08t-6.26,22.07q0,14,6.26,22.08t17.35,8.08q14.53,0,19.62-12.72h27.61a45.22,45.22,0,0,1-16.8,25.07q-12.45,9.27-30.43,9.27Q838.84,281.69,825,267.52Z"/><path class="cls-3" d="M336,119.73c10.15,0,16.47-6.23,16.47-16.82V66.42H363v36.49c0,16.29-10.23,26.26-27.05,26.26s-27.15-10-27.15-26.26V66.42h10.5v36.49C319.27,113.41,325.77,119.73,336,119.73Z"/><path class="cls-3" d="M431.58,99.26v29.46H421.35V102.11c0-7.12-4.27-11.48-11.39-11.48-7.84.08-12.73,5.51-13.45,12.9v25.19H386.28V81.37h10.23v9.08C399.9,83.86,406,81,414,81,425,81,431.58,88,431.58,99.26Z"/><path class="cls-3" d="M465.22,67.84a6,6,0,1,1-6-6.14A5.87,5.87,0,0,1,465.22,67.84Zm-.89,13.53v47.35H454.18V81.37Z"/><path class="cls-3" d="M491.56,81.37l13.17,37.29,13-37.29H528l-18.15,47.35h-10.6L480.88,81.37Z"/><path class="cls-3" d="M583.85,109H548.07a14.42,14.42,0,0,0,14.69,11.84,18.41,18.41,0,0,0,13.35-5.52l5.43,5.79c-4.63,5.07-11.39,8-19.58,8-14.6,0-24.21-9.71-24.21-24s9.88-24,23.94-24.12C578.33,81,585.1,91.87,583.85,109Zm-8.9-7.48c-.36-7.65-5.43-12.28-13.17-12.28-7.48,0-12.82,4.72-13.89,12.28Z"/><path class="cls-3" d="M630,81V90.8c-9.53-.53-15.58,5.08-16.38,13.18v24.74H603.42V81.37h10.24V90.8C616.86,84.39,622.56,81,630,81Z"/><path class="cls-3" d="M660.74,89.11c-4,0-6.94,1.34-6.94,4.72,0,8.72,25.18,4,25.1,21.18,0,9.71-8.64,14.07-18.16,14.07-6.94,0-14.33-2.32-19-6.59l3.65-7.3a25.79,25.79,0,0,0,15.84,5.88c4.36,0,7.75-1.52,7.75-5.08,0-9.7-24.92-4.27-24.84-21.36,0-9.61,8.37-13.71,17.45-13.71,6,0,12.28,1.78,16.55,4.81l-3.73,7.57A27.8,27.8,0,0,0,660.74,89.11Z"/><path class="cls-3" d="M709.15,67.84a6,6,0,1,1-6-6.14A5.87,5.87,0,0,1,709.15,67.84Zm-.89,13.53v47.35H698.11V81.37Z"/><path class="cls-3" d="M777.41,62.68v66H767.18v-8.1c-3.39,5.52-9.08,8.55-16.65,8.55-13.62,0-22.7-9.88-22.7-24.3,0-14.24,9.17-24,22.52-24,7.66,0,13.36,3.12,16.83,8.64V62.68Zm-10.23,42.54c0-9.17-6-15.57-14.51-15.57s-14.51,6.49-14.6,15.57c.09,9,6,15.4,14.6,15.4S767.18,114.21,767.18,105.22Z"/><path class="cls-3" d="M830.27,128.72v-5.78c-3.38,4.18-8.81,6.23-15.66,6.23-10.24,0-16.65-6.32-16.65-14.69,0-8.63,6.5-14.15,17.89-14.24h14.33V98.81c0-6-3.82-9.52-11.3-9.52-4.54,0-9.26,1.6-14,4.81L800.72,87c6.59-3.92,11.4-6,20.39-6,12.19,0,19,6.23,19.13,16.65l.09,31.06Zm-.09-16.64v-4.36H817.36c-6.67,0-9.79,1.78-9.79,6.32,0,4.27,3.48,7,9.17,7C824,121.07,829.65,117.24,830.18,112.08Z"/><path class="cls-3" d="M908.05,62.68v66H897.82v-8.1c-3.39,5.52-9.08,8.55-16.65,8.55-13.62,0-22.7-9.88-22.7-24.3,0-14.24,9.17-24,22.52-24,7.66,0,13.36,3.12,16.83,8.64V62.68Zm-10.23,42.54c0-9.17-6-15.57-14.51-15.57s-14.51,6.49-14.6,15.57c.09,9,6,15.4,14.6,15.4S897.82,114.21,897.82,105.22Z"/><path class="cls-4" d="M229.66,28.75s62.57,51.76,22,94.66-62.84,56.21-90.29,91.91S135.85,268,135.85,268s-38.1-31.34-34.32-76.17,30.47-61.3,49.82-78.29S227.43,44.36,229.66,28.75Z"/><path class="cls-4" d="M110.38,82.45h51.68c5.21-4.78,9.91-9.16,13.5-12.61H97.76v77.59c3.41-5.29,8.08-12.2,12.62-17.85Z"/><path class="cls-4" d="M258.72,138.45v58c0,23.42-7,40.85-21.5,53.28S204.67,268.6,183.7,268.6A84.15,84.15,0,0,1,152.48,263a44.66,44.66,0,0,0-1.27,13,99,99,0,0,0,32.49,5.2c24.08,0,44.85-7.38,61.74-21.93,17.19-14.76,25.89-35.91,25.89-62.85V123.71A97.86,97.86,0,0,1,258.72,138.45Z"/></svg>